#!OML:ASF H:\Not Pregnant\Project 1\Capture day 1\Session 1\non-pregnant.ASF
:FULLY-SPECIFIED
:DEGREES
575
root -5.52802 16.0285 30.1542 -169.804 -3.52557 -183.193
lowerback 1.93725 -0.276072 -1.46687
upperback -6.23746 -0.849945 -0.822801
thorax -7.59428 -0.502795 0.0506356
lowerneck 18.7962 -7.65236 -32.1263
upperneck -5.96354 -20.1616 39.9991
head 3.31208 -13.0403 20.1638
rclavicle 3.82039e-015 9.14409e-015
rhumerus -37.3938 -14.3493 -74.4502
rradius 28.9235
rwrist 21.6478
rhand -9.92242 6.91073
rfingers 7.12502
rthumb 16.0584 -22.4438
lclavicle 3.82039e-015 9.14409e-015
lhumerus -38.6838 -8.19757 89.3286
lradius 41.9821
lwrist 39.0049
lhand -15.0846 -13.5019
lfingers 7.12502
lthumb 11.0831 16.1855
rfemur -42.9963 -4.98582 20.8985
rtibia 24.9075
rfoot 11.0295 17.4436
rtoes 2.45378
lfemur 0.132309 -2.14421 -24.9844
ltibia 12.5603
lfoot -12.145 -22.4433
ltoes -12.1712
576
root -5.53384 16.0275 30.26 -169.863 -3.43695 -183.255
lowerback 1.94862 -0.252499 -1.6028
upperback -6.24103 -0.827244 -0.819487
thorax -7.60384 -0.483556 0.128406
lowerneck 18.8618 -7.63262 -32.1322
upperneck -5.85621 -20.163 39.9081
head 3.31366 -13.0347 20.1228
rclavicle 3.63403e-015 2.08724e-015
rhumerus -37.3895 -14.4372 -74.5648
rradius 28.9217
rwrist 21.641
rhand -9.8596 6.72208
rfingers 7.12502
rthumb 16.1188 -22.6276
lclavicle 3.63403e-015 2.08724e-015
lhumerus -38.7759 -7.9591 89.2398
lradius 41.99
lwrist 39.042
lhand -15.1394 -13.524
lfingers 7.12502
lthumb 11.0303 16.1662
rfemur -43.0095 -5.14338 20.8871
rtibia 24.8995
rfoot 10.4985 17.2455
rtoes 2.82815
lfemur -0.264965 -1.96297 -25.1167
ltibia 12.7369
lfoot -12.5387 -22.2485
ltoes -12.057
577
root -5.53873 16.0258 30.3641 -169.933 -3.32136 -183.325
lowerback 1.97296 -0.218631 -1.7462
upperback -6.23834 -0.791429 -0.826816
thorax -7.6147 -0.457489 0.198149
lowerneck 18.9141 -7.62025 -32.1359
upperneck -5.77532 -20.1669 39.8347
head 3.31471 -13.0314 20.0885
rclavicle 1.39118e-014 1.49089e-015
rhumerus -37.3874 -14.5796 -74.6687
rradius 28.8706
rwrist 21.6576
rhand -9.814 6.56365
rfingers 7.12502
rthumb 16.1628 -22.7825
lclavicle 1.39118e-014 1.49089e-015
lhumerus -38.8739 -7.72698 89.1376
lradius 41.9625
lwrist 39.0932
lhand -15.2533 -13.462
lfingers 7.12502
lthumb 10.9205 16.234
rfemur -42.915 -5.04912 20.7194
rtibia 24.982
rfoot 9.53559 16.8228
rtoes 2.54524
lfemur -0.720702 -1.75553 -25.2514
ltibia 13.0425
lfoot -12.8948 -22.1146
ltoes -11.7146
578
root -5.54251 16.023 30.4671 -170.012 -3.18419 -183.398
lowerback 2.00783 -0.176733 -1.89353
upperback -6.22836 -0.745049 -0.842565
thorax -7.62436 -0.425973 0.260371
lowerneck 18.9652 -7.60647 -32.1312
upperneck -5.71698 -20.1623 39.7749
head 3.30779 -13.0256 20.0622
rclavicle 1.61823e-015 6.55989e-015
rhumerus -37.3873 -14.7532 -74.7742
rradius 28.787
rwrist 21.7093
rhand -9.78901 6.41699
rfingers 7.12502
rthumb 16.1868 -22.9272
lclavicle 1.61823e-015 6.55989e-015
lhumerus -38.9704 -7.49861 89.0185
lradius 41.8955
lwrist 39.1507
lhand -15.4047 -13.3463
lfingers 7.12502
lthumb 10.7744 16.3574
rfemur -42.7368 -4.71766 20.4127
rtibia 25.184
rfoot 8.19765 16.1499
rtoes 1.4862
lfemur -1.22547 -1.53572 -25.3858
ltibia 13.4619
lfoot -13.2504 -22.0045
ltoes -11.3317
579
root -5.54559 16.0196 30.5687 -170.107 -3.01805 -183.472
lowerback 2.05883 -0.122447 -2.0357
upperback -6.20759 -0.681512 -0.86921
thorax -7.63255 -0.386225 0.306809
lowerneck 18.9947 -7.60152 -32.1209
upperneck -5.67513 -20.1602 39.7286
head 3.30333 -13.021 20.0385
rclavicle 1.1368e-014 6.55989e-015
rhumerus -37.377 -14.9634 -74.8852
rradius 28.6486
rwrist 21.7716
rhand -9.8227 6.30536
rfingers 7.12502
rthumb 16.1544 -23.0414
lclavicle 1.1368e-014 6.55989e-015
lhumerus -39.0677 -7.28771 88.8877
lradius 41.7946
lwrist 39.216
lhand -15.5714 -13.1934
lfingers 7.12502
lthumb 10.6136 16.5186
rfemur -42.4948 -4.22598 20.0246
rtibia 25.5367
rfoot 6.5662 15.2557
rtoes -0.357522
lfemur -1.76003 -1.31831 -25.5238
ltibia 13.9739
lfoot -13.5988 -21.8923
ltoes -10.8665
